<?xml version="1.0" encoding="UTF-8"?>
<svg version="1.1" xmlns="http://www.w3.org/2000/svg" width="512" height="512">
<path d="M0 0 C1.66280722 -0.00339833 1.66280722 -0.00339833 3.3592065 -0.00686532 C7.05750032 -0.01317324 10.75575719 -0.01237802 14.45405579 -0.0115509 C17.11243831 -0.01454441 19.77081798 -0.01791934 22.42919922 -0.02172852 C28.89170086 -0.03001263 35.35419338 -0.03278235 41.81669988 -0.03334089 C47.07380356 -0.03381716 52.33090424 -0.03587741 57.58800697 -0.03904152 C72.5157236 -0.04784231 87.44343306 -0.05246185 102.3711523 -0.05171105 C103.57669636 -0.05165111 103.57669636 -0.05165111 104.80659485 -0.05158997 C105.61128021 -0.05154909 106.41596556 -0.0515082 107.24503533 -0.05146609 C120.27800153 -0.05105987 133.31093881 -0.0606247 146.34389665 -0.07472833 C159.74845833 -0.08911881 173.15300593 -0.09599704 186.55757552 -0.09513456 C194.07416971 -0.09480349 201.59073358 -0.09751082 209.10732079 -0.10831261 C215.50840328 -0.11745288 221.90944172 -0.11956409 228.31052794 -0.11280318 C231.57101425 -0.10955556 234.83139937 -0.1105208 238.0918808 -0.11815643 C267.74602518 -0.18307788 294.04993911 3.87899843 317.68574524 23.13371277 C318.51332336 23.79757996 319.34090149 24.46144714 320.19355774 25.14543152 C339.92172361 41.87417405 351.74251858 65.99351509 354.48062193 91.57994998 C354.85170398 96.19988097 354.82647331 100.81562705 354.81945801 105.44796753 C354.82172356 106.55650567 354.82398912 107.66504382 354.82632333 108.80717403 C354.83263125 112.50546785 354.83183603 116.20372472 354.83100891 119.90202332 C354.83400242 122.56040584 354.83737735 125.21878551 354.84118652 127.87716675 C354.84947063 134.33966839 354.85224036 140.80216091 354.8527989 147.26466741 C354.85327517 152.52177109 354.85533542 157.77887177 354.85849953 163.0359745 C354.86730031 177.96369113 354.87191985 192.89140059 354.87116905 207.81911983 C354.87110912 209.02466389 354.87110912 209.02466389 354.87104797 210.25456238 C354.87100709 211.05924774 354.87096621 211.86393309 354.87092409 212.69300286 C354.87051788 225.72596906 354.88008271 238.75890634 354.89418634 251.79186418 C354.90857682 265.19642586 354.91545504 278.60097346 354.91459256 292.00554305 C354.9142615 299.52213724 354.91696883 307.03870111 354.92777061 314.55528831 C354.93691089 320.95637081 354.9390221 327.35740925 354.93226119 333.75849547 C354.92901357 337.01898178 354.92997881 340.2793669 354.93761444 343.53984833 C355.00253589 373.19399271 350.94045958 399.49790664 331.68574524 423.13371277 C331.02187805 423.96129089 330.35801086 424.78886902 329.67402649 425.64152527 C312.94528395 445.36969114 288.82594292 457.19048611 263.23950803 459.92858946 C258.61957704 460.29967151 254.00383096 460.27444083 249.37149048 460.26742554 C248.26295233 460.26969109 247.15441419 460.27195665 246.01228398 460.27429086 C242.31399016 460.28059878 238.61573328 460.27980356 234.91743469 460.27897644 C232.25905217 460.28196995 229.60067249 460.28534488 226.94229126 460.28915405 C220.47978962 460.29743816 214.0172971 460.30020789 207.55479059 460.30076643 C202.29768692 460.3012427 197.04058623 460.30330295 191.78348351 460.30646706 C176.85576688 460.31526784 161.92805742 460.31988738 147.00033817 460.31913658 C146.19664213 460.31909663 145.3929461 460.31905667 144.56489563 460.3190155 C143.76021027 460.31897462 142.95552491 460.31893374 142.12645515 460.31889162 C129.09348895 460.31848541 116.06055167 460.32805024 103.02759383 460.34215387 C89.62303215 460.35654435 76.21848455 460.36342257 62.81391495 460.36256009 C55.29732076 460.36222903 47.78075689 460.36493636 40.26416969 460.37573814 C33.8630872 460.38487842 27.46204876 460.38698963 21.06096254 460.38022872 C17.80047622 460.3769811 14.54009111 460.37794633 11.27960968 460.38558197 C-18.3745347 460.45050342 -44.67844863 456.38842711 -68.31425476 437.13371277 C-69.14183289 436.46984558 -69.96941101 435.80597839 -70.82206726 435.12199402 C-90.55023313 418.39325148 -102.3710281 394.27391045 -105.10913146 368.68747556 C-105.4802135 364.06754457 -105.45498283 359.45179849 -105.44796753 354.81945801 C-105.45023309 353.71091986 -105.45249864 352.60238172 -105.45483285 351.46025151 C-105.46114077 347.76195769 -105.46034555 344.06370081 -105.45951843 340.36540222 C-105.46251194 337.7070197 -105.46588687 335.04864002 -105.46969604 332.39025879 C-105.47798016 325.92775715 -105.48074988 319.46526463 -105.48130842 313.00275812 C-105.48178469 307.74565445 -105.48384494 302.48855376 -105.48700905 297.23145103 C-105.49580984 282.30373441 -105.50042937 267.37602495 -105.49967857 252.4483057 C-105.49963862 251.64460966 -105.49959866 250.84091362 -105.4995575 250.01286316 C-105.49949617 248.80583512 -105.49949617 248.80583512 -105.49943361 247.57442268 C-105.4990274 234.54145648 -105.50859223 221.5085192 -105.52269586 208.47556136 C-105.53708634 195.07099968 -105.54396456 181.66645208 -105.54310209 168.26188248 C-105.54277102 160.74528829 -105.54547835 153.22872442 -105.55628014 145.71213722 C-105.56542041 139.31105472 -105.56753162 132.91001629 -105.56077071 126.50893006 C-105.55752309 123.24844375 -105.55848833 119.98805864 -105.56612396 116.72757721 C-105.63104541 87.07343283 -101.5689691 60.7695189 -82.31425476 37.13371277 C-81.65038757 36.30613464 -80.98652039 35.47855652 -80.30253601 34.62590027 C-63.57379348 14.8977344 -39.45445244 3.07693943 -13.86801755 0.33883607 C-9.24808656 -0.03224597 -4.63234048 -0.0070153 0 0 Z " fill="#26DD81" transform="translate(131.3142547607422,25.866287231445313)"/>
<path d="M0 0 C1.66280722 -0.00339833 1.66280722 -0.00339833 3.3592065 -0.00686532 C7.05750032 -0.01317324 10.75575719 -0.01237802 14.45405579 -0.0115509 C17.11243831 -0.01454441 19.77081798 -0.01791934 22.42919922 -0.02172852 C28.89170086 -0.03001263 35.35419338 -0.03278235 41.81669988 -0.03334089 C47.07380356 -0.03381716 52.33090424 -0.03587741 57.58800697 -0.03904152 C72.5157236 -0.04784231 87.44343306 -0.05246185 102.3711523 -0.05171105 C103.57669636 -0.05165111 103.57669636 -0.05165111 104.80659485 -0.05158997 C105.61128021 -0.05154909 106.41596556 -0.0515082 107.24503533 -0.05146609 C120.27800153 -0.05105987 133.31093881 -0.0606247 146.34389665 -0.07472833 C159.74845833 -0.08911881 173.15300593 -0.09599704 186.55757552 -0.09513456 C194.07416971 -0.09480349 201.59073358 -0.09751082 209.10732079 -0.10831261 C215.50840328 -0.11745288 221.90944172 -0.11956409 228.31052794 -0.11280318 C231.57101425 -0.10955556 234.83139937 -0.1105208 238.0918808 -0.11815643 C267.74602518 -0.18307788 294.04993911 3.87899843 317.68574524 23.13371277 C318.51332336 23.79757996 319.34090149 24.46144714 320.19355774 25.14543152 C339.92172361 41.87417405 351.74251858 65.99351509 354.48062193 91.57994998 C354.85170398 96.19988097 354.82647331 100.81562705 354.81945801 105.44796753 C354.82172356 106.55650567 354.82398912 107.66504382 354.82632333 108.80717403 C354.83263125 112.50546785 354.83183603 116.20372472 354.83100891 119.90202332 C354.83400242 122.56040584 354.83737735 125.21878551 354.84118652 127.87716675 C354.84947063 134.33966839 354.85224036 140.80216091 354.8527989 147.26466741 C354.85327517 152.52177109 354.85533542 157.77887177 354.85849953 163.0359745 C354.86730031 177.96369113 354.87191985 192.89140059 354.87116905 207.81911983 C354.87110912 209.02466389 354.87110912 209.02466389 354.87104797 210.25456238 C354.87100709 211.05924774 354.87096621 211.86393309 354.87092409 212.69300286 C354.87051788 225.72596906 354.88008271 238.75890634 354.89418634 251.79186418 C354.90857682 265.19642586 354.91545504 278.60097346 354.91459256 292.00554305 C354.9142615 299.52213724 354.91696883 307.03870111 354.92777061 314.55528831 C354.93691089 320.95637081 354.9390221 327.35740925 354.93226119 333.75849547 C354.92901357 337.01898178 354.92997881 340.2793669 354.93761444 343.53984833 C355.00253589 373.19399271 350.94045958 399.49790664 331.68574524 423.13371277 C331.02187805 423.96129089 330.35801086 424.78886902 329.67402649 425.64152527 C312.94528395 445.36969114 288.82594292 457.19048611 263.23950803 459.92858946 C258.61957704 460.29967151 254.00383096 460.27444083 249.37149048 460.26742554 C248.26295233 460.26969109 247.15441419 460.27195665 246.01228398 460.27429086 C242.31399016 460.28059878 238.61573328 460.27980356 234.91743469 460.27897644 C232.25905217 460.28196995 229.60067249 460.28534488 226.94229126 460.28915405 C220.47978962 460.29743816 214.0172971 460.30020789 207.55479059 460.30076643 C202.29768692 460.3012427 197.04058623 460.30330295 191.78348351 460.30646706 C176.85576688 460.31526784 161.92805742 460.31988738 147.00033817 460.31913658 C146.19664213 460.31909663 145.3929461 460.31905667 144.56489563 460.3190155 C143.76021027 460.31897462 142.95552491 460.31893374 142.12645515 460.31889162 C129.09348895 460.31848541 116.06055167 460.32805024 103.02759383 460.34215387 C89.62303215 460.35654435 76.21848455 460.36342257 62.81391495 460.36256009 C55.29732076 460.36222903 47.78075689 460.36493636 40.26416969 460.37573814 C33.8630872 460.38487842 27.46204876 460.38698963 21.06096254 460.38022872 C17.80047622 460.3769811 14.54009111 460.37794633 11.27960968 460.38558197 C-18.3745347 460.45050342 -44.67844863 456.38842711 -68.31425476 437.13371277 C-69.14183289 436.46984558 -69.96941101 435.80597839 -70.82206726 435.12199402 C-90.55023313 418.39325148 -102.3710281 394.27391045 -105.10913146 368.68747556 C-105.4802135 364.06754457 -105.45498283 359.45179849 -105.44796753 354.81945801 C-105.45023309 353.71091986 -105.45249864 352.60238172 -105.45483285 351.46025151 C-105.46114077 347.76195769 -105.46034555 344.06370081 -105.45951843 340.36540222 C-105.46251194 337.7070197 -105.46588687 335.04864002 -105.46969604 332.39025879 C-105.47798016 325.92775715 -105.48074988 319.46526463 -105.48130842 313.00275812 C-105.48178469 307.74565445 -105.48384494 302.48855376 -105.48700905 297.23145103 C-105.49580984 282.30373441 -105.50042937 267.37602495 -105.49967857 252.4483057 C-105.49963862 251.64460966 -105.49959866 250.84091362 -105.4995575 250.01286316 C-105.49949617 248.80583512 -105.49949617 248.80583512 -105.49943361 247.57442268 C-105.4990274 234.54145648 -105.50859223 221.5085192 -105.52269586 208.47556136 C-105.53708634 195.07099968 -105.54396456 181.66645208 -105.54310209 168.26188248 C-105.54277102 160.74528829 -105.54547835 153.22872442 -105.55628014 145.71213722 C-105.56542041 139.31105472 -105.56753162 132.91001629 -105.56077071 126.50893006 C-105.55752309 123.24844375 -105.55848833 119.98805864 -105.56612396 116.72757721 C-105.63104541 87.07343283 -101.5689691 60.7695189 -82.31425476 37.13371277 C-81.65038757 36.30613464 -80.98652039 35.47855652 -80.30253601 34.62590027 C-63.57379348 14.8977344 -39.45445244 3.07693943 -13.86801755 0.33883607 C-9.24808656 -0.03224597 -4.63234048 -0.0070153 0 0 Z M-52.31425476 53.13371277 C-52.93816101 53.67382996 -53.56206726 54.21394714 -54.20487976 54.77043152 C-63.54455945 63.12145142 -68.32202584 75.26622857 -71.31425476 87.13371277 C-71.4907467 87.75175913 -71.66723865 88.36980549 -71.84907883 89.00658053 C-72.3653441 91.36733143 -72.44327984 93.49351153 -72.44847584 95.91001606 C-72.45293368 96.87363035 -72.45739153 97.83724463 -72.46198446 98.83005935 C-72.46180009 99.88596887 -72.46161573 100.94187838 -72.46142578 102.02978516 C-72.46510247 103.15376337 -72.46877916 104.27774159 -72.47256726 105.43577975 C-72.48361345 109.21636161 -72.4874496 112.996916 -72.49125671 116.7775116 C-72.49698884 119.48279557 -72.50415487 122.18807542 -72.51116943 124.89335632 C-72.53092484 133.02382886 -72.54100085 141.15430263 -72.54989722 149.28479317 C-72.55428338 153.1177162 -72.5596495 156.95063785 -72.56488609 160.7835598 C-72.58190073 173.53370406 -72.59639202 186.28384748 -72.60363483 199.03400135 C-72.60554461 202.34222223 -72.60746496 205.65044309 -72.60942078 208.95866394 C-72.60990452 209.78086757 -72.61038826 210.6030712 -72.61088666 211.45019009 C-72.61917608 224.75119022 -72.6444935 238.0521001 -72.67700145 251.35306088 C-72.71013741 265.02302175 -72.72808966 278.69293688 -72.73127908 292.36293811 C-72.7334386 300.03226642 -72.7421047 307.7014633 -72.76774025 315.37075233 C-72.78953711 321.90663762 -72.79745399 328.44235955 -72.78777347 334.97827706 C-72.78325388 338.30787939 -72.78719541 341.63687437 -72.80453491 344.96647453 C-72.92246547 364.3995173 -72.92246547 364.3995173 -68.31425476 383.13371277 C-68.03926808 383.88320096 -67.76428141 384.63268915 -67.4809618 385.40488911 C-63.99552539 394.00186845 -58.80922022 400.63874731 -52.31425476 407.13371277 C-51.77413757 407.75632996 -51.23402039 408.37894714 -50.67753601 409.02043152 C-40.66834555 420.23980118 -24.21636234 426.73637187 -9.43362808 427.60426903 C-2.31682372 427.85352277 4.7995288 427.82197108 11.91963196 427.79655457 C14.6513957 427.80224312 17.38311364 427.81533982 20.11485291 427.82797241 C26.73088692 427.85390272 33.34664776 427.85301726 39.96271311 427.84193423 C45.34645105 427.83333427 50.73011066 427.83423911 56.11384964 427.84173012 C56.88358594 427.84278501 57.65332223 427.84383989 58.44638387 427.84492675 C60.01069618 427.84709794 61.57500848 427.84928472 63.13932075 427.8514869 C77.76916164 427.8708642 92.39885006 427.85896972 107.02867843 427.83670095 C119.54517258 427.81845866 132.06137155 427.82935204 144.57783508 427.86100769 C159.15648595 427.89787744 173.7349527 427.91475423 188.31365025 427.90159541 C189.87243658 427.90025449 191.43122293 427.89894551 192.99000931 427.89766884 C194.14005669 427.89672284 194.14005669 427.89672284 195.31333735 427.89575773 C200.68121159 427.89274668 206.0489454 427.90391862 211.41679001 427.92091942 C217.97216329 427.9413709 224.52712079 427.9401842 231.08247314 427.91228702 C234.41881959 427.89863381 237.75385502 427.89738025 241.09026337 427.91623688 C260.08426703 428.01482174 276.77759662 426.50904953 292.68574524 415.13371277 C293.42695618 414.64644714 294.16816711 414.15918152 294.93183899 413.65715027 C305.55116667 406.18497169 312.63707047 394.88816546 317.68574524 383.13371277 C318.05290114 382.31428853 318.42005705 381.49486429 318.79833889 380.65060902 C323.30160137 368.66813066 322.25343125 355.81027253 322.2191925 343.20866394 C322.2240679 340.47410564 322.23486919 337.73957738 322.24530029 335.0050354 C322.26684925 328.37124476 322.26683673 321.73762626 322.25867475 315.10381218 C322.25235252 309.70664568 322.25353206 304.30952906 322.25994682 298.91236305 C322.26129931 297.75628273 322.26129931 297.75628273 322.26267911 296.57684726 C322.26453049 295.01067889 322.26639305 293.44451053 322.26826667 291.87834219 C322.28481395 277.21902868 322.27615273 262.55981165 322.25928109 247.90050397 C322.24459261 234.51987864 322.25920593 221.13947804 322.28805126 207.75888165 C322.31751923 193.98577725 322.32839567 180.21277629 322.31886905 166.43964177 C322.31784661 164.87859779 322.316852 163.3175538 322.31588554 161.75650978 C322.31517096 160.60471282 322.31517096 160.60471282 322.31444194 159.42964723 C322.31228725 154.04735908 322.32203143 148.66516991 322.33665657 143.28290367 C322.35426575 136.71134406 322.35394086 130.1400705 322.33130492 123.5685217 C322.32023844 120.22244366 322.3195775 116.87727738 322.33560562 113.53115845 C322.44208658 89.37939628 318.76671312 70.38118577 301.68574524 52.13371277 C282.80823199 33.95891575 260.52647678 32.5326334 235.79316711 32.61613464 C233.0862496 32.61290472 230.3793591 32.60372376 227.67245483 32.59489441 C221.1141285 32.57720703 214.55598637 32.58090514 207.99765313 32.59254497 C202.66250302 32.60161786 197.32740416 32.60278673 191.99224854 32.59844971 C191.22983666 32.59783677 190.46742479 32.59722384 189.68190953 32.59659234 C188.1325695 32.5953133 186.58322948 32.59401644 185.03388947 32.59270197 C170.54198156 32.58132483 156.05017523 32.5943647 141.55828398 32.61590344 C129.1523153 32.63377182 116.74649638 32.6306669 104.3405304 32.61222839 C89.89671064 32.59077082 75.45297968 32.5824232 61.00914621 32.59467745 C59.4658448 32.5959515 57.92254338 32.59720899 56.37924194 32.59844971 C55.6201189 32.59906681 54.86099585 32.59968391 54.07886907 32.60031971 C48.7567201 32.60375799 43.43462796 32.59797731 38.11248779 32.58853149 C31.61709882 32.5772556 25.12190293 32.58046794 18.62653577 32.60165447 C15.31915593 32.61209069 12.01235958 32.61422391 8.7049427 32.60305786 C-15.60878949 32.52857538 -34.22068889 35.32887401 -52.31425476 53.13371277 Z " fill="#232725" transform="translate(131.3142547607422,25.866287231445313)"/>
<path d="M0 0 C4.23369651 3.75259464 7.92549687 7.33832362 9 13 C9.08922797 15.04432442 9.12197697 17.09136426 9.12025452 19.13763428 C9.12231651 21.02644569 9.12231651 21.02644569 9.12442017 22.95341492 C9.12088126 24.34622216 9.11724645 25.73902917 9.11352539 27.13183594 C9.11324328 28.60038755 9.11340172 30.06893931 9.1139679 31.53749084 C9.11425493 35.52267642 9.10837331 39.50783193 9.10139394 43.49301052 C9.09514484 47.6583637 9.09455537 51.82371756 9.09336853 55.98907471 C9.09025981 63.87608406 9.0820526 71.76307957 9.07201904 79.65008283 C9.06084366 88.62944661 9.05534386 97.60881106 9.05032361 106.58818007 C9.03986962 125.05879457 9.02227905 143.52939617 9 162 C10.27304341 160.88831501 11.54576796 159.77626488 12.81835938 158.6640625 C13.52714233 158.0448291 14.23592529 157.4255957 14.96618652 156.78759766 C17.50573885 154.55548648 20.00641481 152.28328282 22.5 150 C26.28662998 146.54671847 30.1047632 143.13900949 33.97265625 139.77734375 C36.33489173 137.70640513 38.66795853 135.60487152 41 133.5 C44.61887564 130.2341854 48.26683385 127.00694969 51.9453125 123.80859375 C54.28020891 121.75335223 56.57579534 119.65756967 58.875 117.5625 C75.69391288 102.42806992 75.69391288 102.42806992 87.21875 102.69140625 C93.27255846 103.36310691 97.33347805 105.97721794 101.375 110.4375 C105.9566843 116.33890858 106.86284199 121.60907713 106 129 C103.39475147 138.88133551 93.4899196 145.85843583 86.0625 152.22265625 C83.67535264 154.2797624 81.33765244 156.38684772 79 158.5 C75.38323655 161.76390848 71.73610392 164.98790949 68.0625 168.1875 C65.69035571 170.27211164 63.34443935 172.38428644 61 174.5 C57.38323655 177.76390848 53.73610392 180.98790949 50.0625 184.1875 C47.69035571 186.27211164 45.34443935 188.38428644 43 190.5 C39.38323655 193.76390848 35.73610392 196.98790949 32.0625 200.1875 C29.69035571 202.27211164 27.34443935 204.38428644 25 206.5 C21.3850763 209.76224822 17.74531485 212.99044341 14.0625 216.17578125 C12.53960965 217.52273162 11.04334718 218.89992821 9.5625 220.29296875 C2.47252 226.9182092 -2.53872769 231.08527576 -12.4375 231.625 C-24.56660627 231.13816661 -32.12230055 221.36700882 -40.43603516 213.47119141 C-42.92197833 211.13271286 -45.4951334 208.90163698 -48.078125 206.671875 C-50.41105074 204.64241927 -52.70511245 202.572353 -55 200.5 C-57.98062721 197.81016569 -60.97245233 195.13689636 -64 192.5 C-67.89512811 189.10746907 -71.72782763 185.64805799 -75.5625 182.1875 C-77.69417481 180.27445851 -79.8401911 178.38112388 -82 176.5 C-85.89512811 173.10746907 -89.72782763 169.64805799 -93.5625 166.1875 C-95.69417481 164.27445851 -97.8401911 162.38112388 -100 160.5 C-103.89092275 157.1111318 -107.72102874 153.65735129 -111.546875 150.1953125 C-113.75398604 148.22015899 -115.9947025 146.29458528 -118.25 144.375 C-123.84777625 139.47977866 -129.3943429 134.45091391 -130.25 126.75 C-130.54889801 120.6225907 -129.65340633 115.99263152 -126 111 C-120.83298678 105.37008245 -115.77720455 102.99884816 -108.125 102.625 C-101.57790174 102.38731656 -96.18606856 105.74510653 -91.4375 109.98828125 C-90.28306923 111.08739417 -89.13736292 112.19573449 -88 113.3125 C-86.77679311 114.48125571 -85.55284081 115.64923181 -84.328125 116.81640625 C-83.75126953 117.37086426 -83.17441406 117.92532227 -82.58007812 118.49658203 C-80.09862788 120.85764053 -77.51393516 123.09053461 -74.921875 125.328125 C-72.58894926 127.35758073 -70.29488755 129.427647 -68 131.5 C-65.01937279 134.18983431 -62.02754767 136.86310364 -59 139.5 C-55.97245233 142.13689636 -52.98062721 144.81016569 -50 147.5 C-41.72330126 155.01899638 -41.72330126 155.01899638 -33 162 C-33.00276538 161.23854644 -33.00553076 160.47709288 -33.00837994 159.69256496 C-33.07466428 141.15544064 -33.12429252 122.61834 -33.15543652 104.0811224 C-33.17089826 95.11661965 -33.19197453 86.15219607 -33.22631836 77.18774414 C-33.25624193 69.37333881 -33.27558004 61.55899082 -33.28226548 53.74452978 C-33.28617273 49.60771527 -33.29534085 45.47106479 -33.31719017 41.3343029 C-33.3376021 37.43799732 -33.34382433 33.54192282 -33.33932304 29.64556885 C-33.34014615 28.21815801 -33.34608384 26.79073919 -33.35761642 25.36337471 C-33.43353807 15.47914823 -33.0569154 8.47202807 -26 1 C-18.15880387 -4.48883729 -8.30714293 -4.72366951 0 0 Z " fill="#FEFEFE" transform="translate(268,142)"/>
<path d="M0 0 C0.66 0.33 1.32 0.66 2 1 C-3.28 6.28 -8.56 11.56 -14 17 C-14.66 16.67 -15.32 16.34 -16 16 C-10.96679794 10.22494276 -5.96260189 4.82082706 0 0 Z " fill="#216F4C" transform="translate(65,47)"/>
</svg>
