<?xml version="1.0" encoding="UTF-8"?>
<svg version="1.1" xmlns="http://www.w3.org/2000/svg" width="512" height="512">
<path d="M0 0 C1.66280722 -0.00339833 1.66280722 -0.00339833 3.3592065 -0.00686532 C7.05750032 -0.01317324 10.75575719 -0.01237802 14.45405579 -0.0115509 C17.11243831 -0.01454441 19.77081798 -0.01791934 22.42919922 -0.02172852 C28.89170086 -0.03001263 35.35419338 -0.03278235 41.81669988 -0.03334089 C47.07380356 -0.03381716 52.33090424 -0.03587741 57.58800697 -0.03904152 C72.5157236 -0.04784231 87.44343306 -0.05246185 102.3711523 -0.05171105 C103.57669636 -0.05165111 103.57669636 -0.05165111 104.80659485 -0.05158997 C105.61128021 -0.05154909 106.41596556 -0.0515082 107.24503533 -0.05146609 C120.27800153 -0.05105987 133.31093881 -0.0606247 146.34389665 -0.07472833 C159.74845833 -0.08911881 173.15300593 -0.09599704 186.55757552 -0.09513456 C194.07416971 -0.09480349 201.59073358 -0.09751082 209.10732079 -0.10831261 C215.50840328 -0.11745288 221.90944172 -0.11956409 228.31052794 -0.11280318 C231.57101425 -0.10955556 234.83139937 -0.1105208 238.0918808 -0.11815643 C267.74602518 -0.18307788 294.04993911 3.87899843 317.68574524 23.13371277 C318.51332336 23.79757996 319.34090149 24.46144714 320.19355774 25.14543152 C339.92172361 41.87417405 351.74251858 65.99351509 354.48062193 91.57994998 C354.85170398 96.19988097 354.82647331 100.81562705 354.81945801 105.44796753 C354.82172356 106.55650567 354.82398912 107.66504382 354.82632333 108.80717403 C354.83263125 112.50546785 354.83183603 116.20372472 354.83100891 119.90202332 C354.83400242 122.56040584 354.83737735 125.21878551 354.84118652 127.87716675 C354.84947063 134.33966839 354.85224036 140.80216091 354.8527989 147.26466741 C354.85327517 152.52177109 354.85533542 157.77887177 354.85849953 163.0359745 C354.86730031 177.96369113 354.87191985 192.89140059 354.87116905 207.81911983 C354.87110912 209.02466389 354.87110912 209.02466389 354.87104797 210.25456238 C354.87100709 211.05924774 354.87096621 211.86393309 354.87092409 212.69300286 C354.87051788 225.72596906 354.88008271 238.75890634 354.89418634 251.79186418 C354.90857682 265.19642586 354.91545504 278.60097346 354.91459256 292.00554305 C354.9142615 299.52213724 354.91696883 307.03870111 354.92777061 314.55528831 C354.93691089 320.95637081 354.9390221 327.35740925 354.93226119 333.75849547 C354.92901357 337.01898178 354.92997881 340.2793669 354.93761444 343.53984833 C355.00253589 373.19399271 350.94045958 399.49790664 331.68574524 423.13371277 C331.02187805 423.96129089 330.35801086 424.78886902 329.67402649 425.64152527 C312.94528395 445.36969114 288.82594292 457.19048611 263.23950803 459.92858946 C258.61957704 460.29967151 254.00383096 460.27444083 249.37149048 460.26742554 C248.26295233 460.26969109 247.15441419 460.27195665 246.01228398 460.27429086 C242.31399016 460.28059878 238.61573328 460.27980356 234.91743469 460.27897644 C232.25905217 460.28196995 229.60067249 460.28534488 226.94229126 460.28915405 C220.47978962 460.29743816 214.0172971 460.30020789 207.55479059 460.30076643 C202.29768692 460.3012427 197.04058623 460.30330295 191.78348351 460.30646706 C176.85576688 460.31526784 161.92805742 460.31988738 147.00033817 460.31913658 C146.19664213 460.31909663 145.3929461 460.31905667 144.56489563 460.3190155 C143.76021027 460.31897462 142.95552491 460.31893374 142.12645515 460.31889162 C129.09348895 460.31848541 116.06055167 460.32805024 103.02759383 460.34215387 C89.62303215 460.35654435 76.21848455 460.36342257 62.81391495 460.36256009 C55.29732076 460.36222903 47.78075689 460.36493636 40.26416969 460.37573814 C33.8630872 460.38487842 27.46204876 460.38698963 21.06096254 460.38022872 C17.80047622 460.3769811 14.54009111 460.37794633 11.27960968 460.38558197 C-18.3745347 460.45050342 -44.67844863 456.38842711 -68.31425476 437.13371277 C-69.14183289 436.46984558 -69.96941101 435.80597839 -70.82206726 435.12199402 C-90.55023313 418.39325148 -102.3710281 394.27391045 -105.10913146 368.68747556 C-105.4802135 364.06754457 -105.45498283 359.45179849 -105.44796753 354.81945801 C-105.45023309 353.71091986 -105.45249864 352.60238172 -105.45483285 351.46025151 C-105.46114077 347.76195769 -105.46034555 344.06370081 -105.45951843 340.36540222 C-105.46251194 337.7070197 -105.46588687 335.04864002 -105.46969604 332.39025879 C-105.47798016 325.92775715 -105.48074988 319.46526463 -105.48130842 313.00275812 C-105.48178469 307.74565445 -105.48384494 302.48855376 -105.48700905 297.23145103 C-105.49580984 282.30373441 -105.50042937 267.37602495 -105.49967857 252.4483057 C-105.49963862 251.64460966 -105.49959866 250.84091362 -105.4995575 250.01286316 C-105.49949617 248.80583512 -105.49949617 248.80583512 -105.49943361 247.57442268 C-105.4990274 234.54145648 -105.50859223 221.5085192 -105.52269586 208.47556136 C-105.53708634 195.07099968 -105.54396456 181.66645208 -105.54310209 168.26188248 C-105.54277102 160.74528829 -105.54547835 153.22872442 -105.55628014 145.71213722 C-105.56542041 139.31105472 -105.56753162 132.91001629 -105.56077071 126.50893006 C-105.55752309 123.24844375 -105.55848833 119.98805864 -105.56612396 116.72757721 C-105.63104541 87.07343283 -101.5689691 60.7695189 -82.31425476 37.13371277 C-81.65038757 36.30613464 -80.98652039 35.47855652 -80.30253601 34.62590027 C-63.57379348 14.8977344 -39.45445244 3.07693943 -13.86801755 0.33883607 C-9.24808656 -0.03224597 -4.63234048 -0.0070153 0 0 Z " fill="#26DD81" transform="translate(131.3142547607422,25.866287231445313)"/>
<path d="M0 0 C1.66280722 -0.00339833 1.66280722 -0.00339833 3.3592065 -0.00686532 C7.05750032 -0.01317324 10.75575719 -0.01237802 14.45405579 -0.0115509 C17.11243831 -0.01454441 19.77081798 -0.01791934 22.42919922 -0.02172852 C28.89170086 -0.03001263 35.35419338 -0.03278235 41.81669988 -0.03334089 C47.07380356 -0.03381716 52.33090424 -0.03587741 57.58800697 -0.03904152 C72.5157236 -0.04784231 87.44343306 -0.05246185 102.3711523 -0.05171105 C103.57669636 -0.05165111 103.57669636 -0.05165111 104.80659485 -0.05158997 C105.61128021 -0.05154909 106.41596556 -0.0515082 107.24503533 -0.05146609 C120.27800153 -0.05105987 133.31093881 -0.0606247 146.34389665 -0.07472833 C159.74845833 -0.08911881 173.15300593 -0.09599704 186.55757552 -0.09513456 C194.07416971 -0.09480349 201.59073358 -0.09751082 209.10732079 -0.10831261 C215.50840328 -0.11745288 221.90944172 -0.11956409 228.31052794 -0.11280318 C231.57101425 -0.10955556 234.83139937 -0.1105208 238.0918808 -0.11815643 C267.74602518 -0.18307788 294.04993911 3.87899843 317.68574524 23.13371277 C318.51332336 23.79757996 319.34090149 24.46144714 320.19355774 25.14543152 C339.92172361 41.87417405 351.74251858 65.99351509 354.48062193 91.57994998 C354.85170398 96.19988097 354.82647331 100.81562705 354.81945801 105.44796753 C354.82172356 106.55650567 354.82398912 107.66504382 354.82632333 108.80717403 C354.83263125 112.50546785 354.83183603 116.20372472 354.83100891 119.90202332 C354.83400242 122.56040584 354.83737735 125.21878551 354.84118652 127.87716675 C354.84947063 134.33966839 354.85224036 140.80216091 354.8527989 147.26466741 C354.85327517 152.52177109 354.85533542 157.77887177 354.85849953 163.0359745 C354.86730031 177.96369113 354.87191985 192.89140059 354.87116905 207.81911983 C354.87110912 209.02466389 354.87110912 209.02466389 354.87104797 210.25456238 C354.87100709 211.05924774 354.87096621 211.86393309 354.87092409 212.69300286 C354.87051788 225.72596906 354.88008271 238.75890634 354.89418634 251.79186418 C354.90857682 265.19642586 354.91545504 278.60097346 354.91459256 292.00554305 C354.9142615 299.52213724 354.91696883 307.03870111 354.92777061 314.55528831 C354.93691089 320.95637081 354.9390221 327.35740925 354.93226119 333.75849547 C354.92901357 337.01898178 354.92997881 340.2793669 354.93761444 343.53984833 C355.00253589 373.19399271 350.94045958 399.49790664 331.68574524 423.13371277 C331.02187805 423.96129089 330.35801086 424.78886902 329.67402649 425.64152527 C312.94528395 445.36969114 288.82594292 457.19048611 263.23950803 459.92858946 C258.61957704 460.29967151 254.00383096 460.27444083 249.37149048 460.26742554 C248.26295233 460.26969109 247.15441419 460.27195665 246.01228398 460.27429086 C242.31399016 460.28059878 238.61573328 460.27980356 234.91743469 460.27897644 C232.25905217 460.28196995 229.60067249 460.28534488 226.94229126 460.28915405 C220.47978962 460.29743816 214.0172971 460.30020789 207.55479059 460.30076643 C202.29768692 460.3012427 197.04058623 460.30330295 191.78348351 460.30646706 C176.85576688 460.31526784 161.92805742 460.31988738 147.00033817 460.31913658 C146.19664213 460.31909663 145.3929461 460.31905667 144.56489563 460.3190155 C143.76021027 460.31897462 142.95552491 460.31893374 142.12645515 460.31889162 C129.09348895 460.31848541 116.06055167 460.32805024 103.02759383 460.34215387 C89.62303215 460.35654435 76.21848455 460.36342257 62.81391495 460.36256009 C55.29732076 460.36222903 47.78075689 460.36493636 40.26416969 460.37573814 C33.8630872 460.38487842 27.46204876 460.38698963 21.06096254 460.38022872 C17.80047622 460.3769811 14.54009111 460.37794633 11.27960968 460.38558197 C-18.3745347 460.45050342 -44.67844863 456.38842711 -68.31425476 437.13371277 C-69.14183289 436.46984558 -69.96941101 435.80597839 -70.82206726 435.12199402 C-90.55023313 418.39325148 -102.3710281 394.27391045 -105.10913146 368.68747556 C-105.4802135 364.06754457 -105.45498283 359.45179849 -105.44796753 354.81945801 C-105.45023309 353.71091986 -105.45249864 352.60238172 -105.45483285 351.46025151 C-105.46114077 347.76195769 -105.46034555 344.06370081 -105.45951843 340.36540222 C-105.46251194 337.7070197 -105.46588687 335.04864002 -105.46969604 332.39025879 C-105.47798016 325.92775715 -105.48074988 319.46526463 -105.48130842 313.00275812 C-105.48178469 307.74565445 -105.48384494 302.48855376 -105.48700905 297.23145103 C-105.49580984 282.30373441 -105.50042937 267.37602495 -105.49967857 252.4483057 C-105.49963862 251.64460966 -105.49959866 250.84091362 -105.4995575 250.01286316 C-105.49949617 248.80583512 -105.49949617 248.80583512 -105.49943361 247.57442268 C-105.4990274 234.54145648 -105.50859223 221.5085192 -105.52269586 208.47556136 C-105.53708634 195.07099968 -105.54396456 181.66645208 -105.54310209 168.26188248 C-105.54277102 160.74528829 -105.54547835 153.22872442 -105.55628014 145.71213722 C-105.56542041 139.31105472 -105.56753162 132.91001629 -105.56077071 126.50893006 C-105.55752309 123.24844375 -105.55848833 119.98805864 -105.56612396 116.72757721 C-105.63104541 87.07343283 -101.5689691 60.7695189 -82.31425476 37.13371277 C-81.65038757 36.30613464 -80.98652039 35.47855652 -80.30253601 34.62590027 C-63.57379348 14.8977344 -39.45445244 3.07693943 -13.86801755 0.33883607 C-9.24808656 -0.03224597 -4.63234048 -0.0070153 0 0 Z M-55.7351532 55.77775574 C-66.70550423 69.46940415 -72.79384569 84.3161362 -72.71539307 101.965271 C-72.72218974 103.10536415 -72.72898641 104.2454573 -72.73598903 105.42009872 C-72.7548722 109.21348458 -72.75252987 113.00654509 -72.75004578 116.79997253 C-72.75740505 119.53098759 -72.76915481 122.2619803 -72.78057861 124.99298096 C-72.80540685 131.62634293 -72.81373903 138.25962488 -72.81541575 144.89302946 C-72.81684585 150.29117478 -72.82303305 155.68929392 -72.83251762 161.08743095 C-72.85891464 176.42578063 -72.87277963 191.76406757 -72.8705262 207.10244013 C-72.87040633 207.92785043 -72.87028646 208.75326073 -72.87016296 209.60368347 C-72.87004032 210.4301135 -72.86991768 211.25654353 -72.86979132 212.1080169 C-72.86857317 225.48744273 -72.89725629 238.86661479 -72.93957806 252.24596728 C-72.9827907 266.01675155 -73.00338189 279.78741239 -73.00079674 293.5582661 C-72.99980486 301.27626362 -73.00786711 308.99399519 -73.04033089 316.71193123 C-73.0678068 323.28569688 -73.0740418 329.85907612 -73.05380262 336.43287469 C-73.04408525 339.779334 -73.04687948 343.12445728 -73.06986237 346.47093964 C-73.2134606 368.84274858 -70.18540299 389.26281906 -54.22831726 406.27433777 C-48.20352671 412.12699144 -41.89427251 416.61884802 -34.43925476 420.44621277 C-33.50448303 420.93444519 -33.50448303 420.93444519 -32.55082703 421.43254089 C-22.95272724 426.13804325 -13.04523602 427.58302413 -2.45614624 427.52139282 C-1.32533263 427.52677836 -0.19451901 427.5321639 0.97056168 427.53771263 C4.72640376 427.55191925 8.48188975 427.54490636 12.23774719 427.5377655 C14.94421797 427.54183272 17.65067105 427.55033899 20.35713196 427.55856323 C26.92586331 427.57569312 33.49449877 427.57660329 40.06324665 427.57135033 C45.40704434 427.56729613 50.75081385 427.56876697 56.09461021 427.57409859 C57.23883773 427.57522122 57.23883773 427.57522122 58.40618094 427.57636653 C59.95624557 427.57789814 61.5063102 427.57943648 63.05637481 427.5809815 C77.56827798 427.59468579 92.08012714 427.58928369 106.59202906 427.57779629 C119.84079894 427.56786847 133.08942908 427.58080044 146.33817742 427.60473048 C159.97224387 427.62916917 173.60624536 427.63871751 187.24033326 427.63207775 C194.88269915 427.6285958 202.52495768 427.63074945 210.1673069 427.64832878 C216.67373841 427.6631107 223.17998696 427.66360869 229.68641511 427.64625787 C232.99985696 427.63779373 236.31270715 427.63768526 239.62617302 427.65090942 C259.00371652 427.73501529 259.00371652 427.73501529 277.68574524 423.13371277 C278.43539708 422.858767 279.18504892 422.58382124 279.95741749 422.30054379 C288.55395257 418.81382006 295.19060546 413.62885254 301.68574524 407.13371277 C302.30836243 406.59359558 302.93097961 406.05347839 303.57246399 405.49699402 C314.08950732 396.11437334 319.29163528 381.66192776 321.68574524 368.13371277 C321.77485985 366.49811009 321.81818171 364.85955975 321.82275963 363.22153759 C321.82783417 362.25306556 321.83290871 361.28459353 321.83813703 360.28677386 C321.83863479 359.23056836 321.83913254 358.17436285 321.83964539 357.08615112 C321.84402764 355.9579405 321.84840989 354.82972987 321.85292494 353.66733104 C321.86630316 349.8783726 321.87248972 346.08943743 321.87861633 342.30046082 C321.88599379 339.58679932 321.89478254 336.87314267 321.90339661 334.15948486 C321.92789236 326.00866477 321.94254558 317.85783864 321.95545667 309.70699307 C321.9591713 307.40252779 321.96314433 305.0980631 321.96720934 302.79359841 C321.99245352 288.46638957 322.01449479 274.13917971 322.02693748 259.81195354 C322.02986693 256.49497156 322.03282862 253.1779896 322.0358429 249.86100769 C322.03696197 248.62445804 322.03696197 248.62445804 322.03810365 247.36292759 C322.05074058 234.02707847 322.0839425 220.69136318 322.12564473 207.35557654 C322.16816208 193.64602968 322.19164397 179.93655113 322.19685805 166.22693855 C322.20026157 158.53687896 322.21189054 150.84702833 322.24496078 143.15703392 C322.27309784 136.60361286 322.2839014 130.05044361 322.27276532 123.49696686 C322.26761262 120.15901679 322.27302236 116.8220159 322.29523087 113.48407364 C322.44696232 89.35311191 319.03126093 71.03280874 301.68574524 53.13371277 C301.14433899 52.50722839 300.60293274 51.88074402 300.04512024 51.23527527 C290.00839986 40.03267323 273.59608884 33.52596584 258.79940796 32.66601181 C251.67381794 32.42083596 244.54884339 32.45692705 237.42012024 32.48674011 C234.68511415 32.48270144 231.95014979 32.47122487 229.21516418 32.46018982 C222.59176927 32.43809142 215.9686595 32.44269819 209.34525394 32.45725302 C203.95673366 32.46859853 198.56829263 32.47005337 193.17976379 32.46463394 C192.40945005 32.46386778 191.63913631 32.46310161 190.84547973 32.46231223 C189.28003595 32.46071342 187.7145922 32.45909234 186.14914846 32.45744927 C171.50982432 32.44323103 156.87065736 32.45952258 142.231359 32.4864511 C129.70175287 32.50878634 117.17237845 32.5049051 104.64277649 32.4818573 C90.05170003 32.4550296 75.46076093 32.44460396 60.86966324 32.45991862 C59.31035107 32.46151117 57.75103889 32.46308303 56.19172668 32.46463394 C55.42474701 32.46540532 54.65776733 32.4661767 53.86754584 32.46697145 C48.49274348 32.47126761 43.11802909 32.46404719 37.74324036 32.45223618 C31.18272098 32.43813483 24.62250025 32.44216981 18.06201458 32.4686399 C14.72200018 32.4816771 11.38288756 32.48436266 8.04281616 32.47039413 C-16.40547199 32.3776234 -38.77984704 36.15970906 -55.7351532 55.77775574 Z " fill="#262927" transform="translate(131.3142547607422,25.866287231445313)"/>
<path d="M0 0 C4.42333155 1.99179257 7.56489345 4.98947686 10.859375 8.4921875 C13.25013941 10.98850442 15.84561636 13.20087413 18.4609375 15.45703125 C20.87733576 17.55559695 23.25419649 19.69424075 25.62890625 21.83984375 C28.60953346 24.52967806 31.60135858 27.20294739 34.62890625 29.83984375 C38.52403436 33.23237468 42.35673388 36.69178576 46.19140625 40.15234375 C48.32308106 42.06538524 50.46909735 43.95871987 52.62890625 45.83984375 C56.52403436 49.23237468 60.35673388 52.69178576 64.19140625 56.15234375 C66.32308106 58.06538524 68.46909735 59.95871987 70.62890625 61.83984375 C74.52403436 65.23237468 78.35673388 68.69178576 82.19140625 72.15234375 C84.32308106 74.06538524 86.46909735 75.95871987 88.62890625 77.83984375 C89.96274226 79.00593568 91.2960395 80.17264406 92.62890625 81.33984375 C93.46808594 82.07332031 94.30726563 82.80679688 95.171875 83.5625 C108.89469209 95.70425397 108.89469209 95.70425397 109.91796875 103.55859375 C110.310762 110.25675241 108.82435896 115.08047241 104.62890625 120.33984375 C99.61705194 124.98117187 95.362854 127.46686066 88.44140625 127.65234375 C87.08982422 127.70841797 87.08982422 127.70841797 85.7109375 127.765625 C78.15130693 126.72126539 72.91438404 122.21710265 67.62890625 117.02734375 C66.40569936 115.85858804 65.18174706 114.69061194 63.95703125 113.5234375 C63.38017578 112.96897949 62.80332031 112.41452148 62.20898438 111.84326172 C59.72753413 109.48220322 57.14284141 107.24930914 54.55078125 105.01171875 C52.21785551 102.98226302 49.9237938 100.91219675 47.62890625 98.83984375 C44.64827904 96.15000944 41.65645392 93.47674011 38.62890625 90.83984375 C35.60135858 88.20294739 32.60953346 85.52967806 29.62890625 82.83984375 C21.35220751 75.32084737 21.35220751 75.32084737 12.62890625 68.33984375 C12.63167163 69.10129731 12.63443701 69.86275087 12.63728619 70.64727879 C12.70357053 89.18440311 12.75319877 107.72150375 12.78434277 126.25872135 C12.79980451 135.2232241 12.82088078 144.18764768 12.85522461 153.15209961 C12.88514818 160.96650494 12.90448629 168.78085293 12.91117173 176.59531397 C12.91507898 180.73212848 12.9242471 184.86877896 12.94609642 189.00554085 C12.96650835 192.90184643 12.97273058 196.79792093 12.96822929 200.6942749 C12.9690524 202.12168574 12.97499009 203.54910456 12.98652267 204.97646904 C13.06244432 214.86069552 12.68582165 221.86781568 5.62890625 229.33984375 C-0.37321649 233.54132967 -6.20214538 233.94831931 -13.37109375 233.33984375 C-20.10930278 231.24105733 -24.56988943 227.23171044 -28.37109375 221.33984375 C-29.48582553 217.94551102 -29.49434161 214.75830715 -29.49134827 211.20220947 C-29.49341026 209.31339806 -29.49341026 209.31339806 -29.49551392 207.38642883 C-29.49197501 205.99362159 -29.4883402 204.60081458 -29.48461914 203.20800781 C-29.48433703 201.7394562 -29.48449547 200.27090444 -29.48506165 198.80235291 C-29.48534868 194.81716733 -29.47946706 190.83201182 -29.47248769 186.84683323 C-29.46623859 182.68148005 -29.46564912 178.51612619 -29.46446228 174.35076904 C-29.46135356 166.46375969 -29.45314635 158.57676418 -29.44311279 150.68976092 C-29.43193741 141.71039714 -29.42643761 132.73103269 -29.42141736 123.75166368 C-29.41096337 105.28104918 -29.3933728 86.81044758 -29.37109375 68.33984375 C-30.64413716 69.45152874 -31.91686171 70.56357887 -33.18945312 71.67578125 C-33.89823608 72.29501465 -34.60701904 72.91424805 -35.33728027 73.55224609 C-37.8768326 75.78435727 -40.37750856 78.05656093 -42.87109375 80.33984375 C-46.65772373 83.79312528 -50.47585695 87.20083426 -54.34375 90.5625 C-56.70598548 92.63343862 -59.03905228 94.73497223 -61.37109375 96.83984375 C-64.98996939 100.10565835 -68.6379276 103.33289406 -72.31640625 106.53125 C-74.65130266 108.58649152 -76.94688909 110.68227408 -79.24609375 112.77734375 C-96.0527048 127.90070408 -96.0527048 127.90070408 -107.5859375 127.65234375 C-113.22175868 127.01999355 -117.43539724 124.69129679 -121.18359375 120.46484375 C-125.71824122 113.98677593 -127.41520699 109.22596963 -126.37109375 101.33984375 C-123.7412367 91.45456546 -113.87230563 84.49108377 -106.43359375 78.1171875 C-104.04644639 76.06008135 -101.70874619 73.95299603 -99.37109375 71.83984375 C-95.7543303 68.57593527 -92.10719767 65.35193426 -88.43359375 62.15234375 C-86.06144946 60.06773211 -83.7155331 57.95555731 -81.37109375 55.83984375 C-77.7543303 52.57593527 -74.10719767 49.35193426 -70.43359375 46.15234375 C-68.06144946 44.06773211 -65.7155331 41.95555731 -63.37109375 39.83984375 C-59.7543303 36.57593527 -56.10719767 33.35193426 -52.43359375 30.15234375 C-50.06144946 28.06773211 -47.7155331 25.95555731 -45.37109375 23.83984375 C-41.75691703 20.57826963 -38.11635102 17.35240005 -34.4375 14.1640625 C-32.90612967 12.81217224 -31.39625566 11.43584697 -29.8984375 10.046875 C-20.69372261 1.53633167 -13.13290028 -3.65644176 0 0 Z " fill="#FEFEFE" transform="translate(264.37109375,139.66015625)"/>
<path d="M0 0 C-1.39750048 3.15835107 -3.05198234 5.32272825 -5.5 7.75 C-6.41265625 8.67039062 -6.41265625 8.67039062 -7.34375 9.609375 C-9 11 -9 11 -11 11 C-9.60249952 7.84164893 -7.94801766 5.67727175 -5.5 3.25 C-4.8915625 2.63640625 -4.283125 2.0228125 -3.65625 1.390625 C-2 0 -2 0 0 0 Z " fill="#71887C" transform="translate(62,51)"/>
</svg>
